<?xml version="1.0" encoding="UTF-8"?>
<!DOCTYPE svg PUBLIC "-//W3C//DTD SVG 1.1//EN" "http://www.w3.org/Graphics/SVG/1.1/DTD/svg11.dtd">
<!-- Creator: CorelDRAW -->
<svg xmlns="http://www.w3.org/2000/svg" xml:space="preserve" width="2.7093mm" height="2.7094mm" version="1.1" style="shape-rendering:geometricPrecision; text-rendering:geometricPrecision; image-rendering:optimizeQuality; fill-rule:evenodd; clip-rule:evenodd"
viewBox="0 0 263.28 263.29"
 xmlns:xlink="http://www.w3.org/1999/xlink"
 xmlns:xodm="http://www.corel.com/coreldraw/odm/2003">
 <defs>
  <style type="text/css">
   <![CDATA[
    .fil1 {fill:#006341;fill-rule:nonzero}
    .fil0 {fill:white;fill-rule:nonzero}
   ]]>
  </style>
 </defs>
 <g id="Camada_x0020_1">
  <metadata id="CorelCorpID_0Corel-Layer"/>
  <g id="_2831622698160">
   <circle class="fil0" cx="131.65" cy="131.65" r="131.64"/>
   <path class="fil1" d="M144.88 56.92c-1.16,-0.2 -6.71,-1.14 -13.24,-1.14 -6.52,0 -12.08,0.92 -13.24,1.14 -0.66,0.12 -0.92,-0.52 -0.42,-0.9 0.46,-0.34 13.65,-10.38 13.65,-10.38l13.63 10.38c0.52,0.38 0.26,1.02 -0.4,0.9zm-22.79 65.19c0,0 -0.7,0.25 -0.88,0.86 2.77,2.12 4.67,6.96 10.44,6.96 5.76,0 7.67,-4.84 10.43,-6.96 -0.17,-0.62 -0.87,-0.86 -0.87,-0.86 0,0 -3.61,0.86 -9.55,0.86 -5.94,0 -9.55,-0.86 -9.55,-0.86l0 0zm9.55 -8.13c-1.6,0 -1.95,-0.6 -3.04,-0.6 -1.04,0.01 -3.06,0.84 -3.5,1.59 0.03,0.39 0.17,0.74 0.45,1.04 2.33,0.35 3.39,1.65 6.09,1.65 2.71,0 3.76,-1.3 6.1,-1.65 0.27,-0.3 0.42,-0.64 0.45,-1.04 -0.44,-0.76 -2.46,-1.58 -3.5,-1.59 -1.1,0 -1.46,0.6 -3.05,0.6l0 0zm131.44 24.9c-0.17,3.14 -0.45,6.27 -0.84,9.35 -14.9,2.47 -20.23,-10.82 -35.49,-10.15 0.91,3.24 1.65,6.54 2.23,9.91 12.58,-0.01 17.66,11.76 31.66,10.02 -0.74,3.61 -1.62,7.15 -2.64,10.65 -11.08,1.09 -14.98,-9.92 -27.79,-9.62 0.11,1.83 0.17,3.67 0.17,5.53l-0.06 3.08 24.89 9.49c-1.3,3.54 -2.76,7.01 -4.34,10.4 -7.48,-0.42 -10.07,-10.01 -21.45,-9.25 -0.34,2.47 -0.78,4.9 -1.29,7.3 9.88,-0.7 12.01,8.41 19.1,9.14 -1.81,3.28 -3.75,6.49 -5.81,9.61 -4.2,-2.24 -7.83,-9.03 -15.79,-9.45 0.82,-2.52 1.54,-5.07 2.14,-7.67 -7.06,0 -15.12,-2.75 -21.89,-8.91 2.2,-12.49 -17.18,-25.21 -17.18,-34.35 0,-9.93 5.02,-15.43 5.02,-28.82 0,-9.93 -4.83,-20.72 -12.11,-28.08 -1.41,-1.43 -2.85,-2.58 -4.51,-3.62 6.69,8.27 11.82,18.08 11.82,29.44 0,12.61 -5.86,19.27 -5.86,30.91 0,11.63 17.03,21.71 17.03,33.7 0,4.72 -1.52,9.34 -6.49,18.4 7.65,7.63 17.6,11.8 24.02,11.8 2.09,0 3.21,-0.64 3.96,-2.27 0.64,-1.41 1.24,-2.85 1.82,-4.29 6.93,0.26 10.1,6.55 13.93,9.07 -2.11,2.82 -4.31,5.54 -6.63,8.18 -2.57,-2.85 -6.02,-7.63 -11.06,-8.96 -0.9,1.76 -1.87,3.49 -2.87,5.19 4.34,1.19 7.32,5.57 9.62,8.46 -2.48,2.57 -5.06,5.03 -7.75,7.4 -1.68,-2.61 -4.3,-5.94 -7.23,-7.73 -1.08,1.47 -2.21,2.9 -3.37,4.29 2.5,1.69 4.69,4.73 6.13,7.21 -3.11,2.49 -6.33,4.86 -9.65,7.06 -1.64,-13.36 -19.89,-22.53 -14.97,-38.04 -1.62,2.73 -3.55,6.15 -3.55,10.26 0,11.23 11.96,20.14 12.91,31.3 -2.48,1.49 -5.01,2.88 -7.6,4.2 -0.43,-12.26 -13.09,-25.68 -13.09,-35.75 0,-11.23 14.71,-22.53 14.71,-35.79 0,-13.26 -16.98,-22.46 -16.98,-34.11 0,-11.64 7.22,-18.35 7.22,-33.27 0,-10.93 -5.2,-22 -13.23,-29.07 -1.42,-1.25 -2.82,-2.25 -4.5,-3.13 7.57,9.08 11.96,17.32 11.96,29.81 0,14.03 -8.28,21.83 -8.28,35.57 0,13.75 16.67,21.39 16.67,34.21 0,12.81 -15.51,23.61 -15.51,36.77 0,11.97 13.67,23.93 13.87,38.13 -2.98,1.3 -6.02,2.5 -9.12,3.58 1.74,-14.35 -13.65,-29.16 -13.65,-40.87 0,-12.8 16.09,-23.81 16.09,-37.61 0,-13.81 -16.35,-20.23 -16.35,-34.41 0,-14.17 10.03,-22.01 10.03,-37.67 0,-12.21 -6.02,-23.18 -14.82,-29.98l-0.56 -0.42c-0.83,-0.62 -1.52,0.13 -0.92,0.86 6.23,7.77 9.56,15.65 9.56,27.3 0,14.31 -11.53,25.96 -11.53,39.83 0,16.37 15.48,21.05 15.48,34.49 0,13.43 -16.61,24.18 -16.61,38.43 0,13.23 15.71,27.9 13.02,43.17 -3.15,0.82 -6.35,1.53 -9.59,2.11 2.95,-19.01 -12.46,-32.66 -12.46,-45.09 0,-13.46 17.19,-25.46 17.19,-38.62 0,-12.41 -12.34,-16.46 -13.96,-29.15 -0.22,-1.74 -1.61,-3.02 -3.53,-2.7 -2.51,0.46 -5.72,2.11 -10.77,2.11 -5.04,0 -8.26,-1.66 -10.77,-2.11 -1.91,-0.32 -3.3,0.97 -3.53,2.7 -1.62,12.69 -13.96,16.74 -13.96,29.15 0,13.16 17.19,25.15 17.19,38.62 0,12.43 -15.4,26.08 -12.46,45.09 -3.25,-0.58 -6.44,-1.29 -9.59,-2.11 -2.69,-15.27 13.02,-29.94 13.02,-43.17 0,-14.26 -16.61,-25 -16.61,-38.43 0,-13.44 15.49,-18.11 15.49,-34.49 0,-13.88 -11.53,-25.51 -11.53,-39.83 0,-11.65 3.33,-19.51 9.56,-27.3 0.58,-0.73 -0.1,-1.48 -0.92,-0.86l-0.55 0.42c-8.79,6.78 -14.82,17.75 -14.82,29.96 0,15.66 10.04,23.5 10.04,37.67 0,14.18 -16.35,20.59 -16.35,34.41 0,13.81 16.08,24.81 16.08,37.62 0,11.71 -15.38,26.51 -13.64,40.86 -3.1,-1.08 -6.14,-2.27 -9.13,-3.58 0.2,-14.21 13.87,-26.16 13.87,-38.13 0,-13.16 -15.5,-23.95 -15.5,-36.77 0,-12.81 16.66,-20.46 16.66,-34.2 0,-13.75 -8.27,-21.54 -8.27,-35.58 0,-12.5 4.38,-20.73 11.95,-29.81 -1.68,0.87 -3.08,1.88 -4.5,3.13 -8.03,7.06 -13.22,18.13 -13.22,29.07 0,14.93 7.22,21.63 7.22,33.27 0,11.65 -16.98,20.84 -16.98,34.12 0,13.26 14.71,24.55 14.71,35.78 0,10.08 -12.67,23.5 -13.09,35.75 -2.58,-1.32 -5.12,-2.71 -7.6,-4.2 0.95,-11.16 12.91,-20.07 12.91,-31.3 0,-4.11 -1.91,-7.53 -3.54,-10.26 4.92,15.51 -13.33,24.67 -14.98,38.04 -3.32,-2.22 -6.54,-4.58 -9.64,-7.07 1.43,-2.47 3.62,-5.52 6.12,-7.21 -1.17,-1.38 -2.28,-2.82 -3.37,-4.29 -2.93,1.79 -5.56,5.11 -7.23,7.73 -2.68,-2.36 -5.27,-4.84 -7.75,-7.4 2.3,-2.89 5.28,-7.28 9.63,-8.46 -1.01,-1.7 -1.96,-3.42 -2.87,-5.19 -5.05,1.33 -8.5,6.11 -11.07,8.96 -2.31,-2.64 -4.52,-5.36 -6.62,-8.18 3.83,-2.51 7,-8.8 13.92,-9.07 0.57,1.44 1.19,2.87 1.83,4.29 0.75,1.64 1.87,2.27 3.95,2.27 6.42,0 16.37,-4.16 24.02,-11.8 -4.98,-9.06 -6.48,-13.66 -6.48,-18.39 0,-12 17.03,-22.07 17.03,-33.71 0,-11.64 -5.87,-18.3 -5.87,-30.9 0,-11.37 5.13,-21.17 11.83,-29.45 -1.66,1.04 -3.11,2.2 -4.52,3.62 -7.28,7.38 -12.1,18.15 -12.1,28.09 0,13.39 5.02,18.88 5.02,28.82 0,9.14 -19.39,21.86 -17.19,34.34 -6.76,6.16 -14.84,8.91 -21.89,8.91 0.61,2.59 1.33,5.15 2.14,7.67 -7.95,0.43 -11.59,7.2 -15.79,9.45 -2.07,-3.12 -4,-6.33 -5.81,-9.61 7.07,-0.74 9.21,-9.84 19.11,-9.14 -0.52,-2.4 -0.96,-4.84 -1.3,-7.3 -11.38,-0.76 -13.96,8.84 -21.45,9.25 -1.58,-3.39 -3.04,-6.86 -4.34,-10.4l24.89 -9.49 -0.05 -3.08c0,-1.86 0.06,-3.7 0.16,-5.52 -12.82,-0.3 -16.71,10.7 -27.79,9.61 -1.02,-3.5 -1.9,-7.05 -2.64,-10.65 14,1.74 19.08,-10.03 31.67,-10.02 0.57,-3.37 1.31,-6.68 2.22,-9.91 -15.26,-0.66 -20.59,12.61 -35.48,10.15 -0.4,-3.08 -0.67,-6.2 -0.84,-9.35 17.32,1.93 23.81,-12.3 39.58,-10.56 1.49,-3.77 3.22,-7.41 5.16,-10.92 -19.77,-3.48 -26.48,13.06 -44.89,10.51 1.99,-70.95 60.14,-127.88 131.59,-127.88 71.44,0 129.6,56.93 131.59,127.89 -18.42,2.54 -25.12,-13.98 -44.89,-10.51 1.94,3.51 3.66,7.15 5.16,10.92 15.76,-1.75 22.25,12.5 39.58,10.56l0 0zm-188.03 -55.22c-9.69,-3.96 -21.43,-3.05 -31.45,3.39 -1.55,-9.33 -6.61,-17.61 -13.82,-22.6 -0.99,-0.69 -2.03,-0.04 -1.93,1.12 1.52,19.7 -10,36.81 -24.16,51.84 14.6,4.38 27.02,-14.41 45.96,-7.85 6.79,-10.12 15.42,-18.9 25.4,-25.9l0 0zm56.59 -11.91c-12.22,0 -22.46,6.91 -25.14,15.84 -0.2,0.68 0.08,1.13 0.86,0.77 2.2,-0.98 4.7,-1.46 7.41,-1.46 4.99,0 9.38,1.83 11.97,5.01 1.16,3.79 1.25,9.28 -0.05,12.41 -2.05,-0.46 -2.79,-2.04 -4.79,-2.04 -2.01,0 -3.57,1.41 -6.97,1.41 -3.39,0 -3.79,-1.61 -6.02,-1.61 -2.62,0 -3.11,2.71 -3.11,5.76 0,13.61 12.52,32.35 25.83,32.35 13.3,0 25.82,-18.74 25.82,-32.35 0,-3.05 -0.63,-5.67 -3.37,-6.02 -1.37,0.99 -2.63,1.88 -5.76,1.88 -3.4,0 -4.34,-1.41 -6.35,-1.41 -2.42,0 -2.18,5.09 -5.04,5.38 -1.91,-4.61 -2,-10.5 -0.42,-15.75 2.6,-3.19 6.99,-5.01 11.97,-5.01 2.72,0 5.24,0.48 7.41,1.46 0.8,0.36 1.07,-0.09 0.86,-0.77 -2.68,-8.93 -12.91,-15.84 -25.13,-15.84l0 0zm19.45 19.53c-2.93,0 -6.37,0.9 -8.52,3.3 -0.22,0.65 -0.22,1.63 0.09,2.27 5.32,-1.82 10,-1.89 12.26,0.64 1.2,-1.1 1.59,-2.08 1.59,-3.23 0,-1.77 -1.8,-2.99 -5.42,-2.99zm-42.74 6.22c2.56,-2.57 7.96,-2.45 13.58,-0.38 0.24,-2.8 -4.75,-5.84 -9.75,-5.84 -3.62,0 -5.42,1.22 -5.42,2.99 0,1.15 0.39,2.14 1.59,3.23zm84.21 -46.08c-9.65,0.68 -18.03,3.99 -24.81,9.51 2.89,-8.15 6.54,-15.3 11.17,-22.21 -12.28,1.3 -22.55,5.79 -30.05,13.48l-5.87 -15.38 13.02 -11.5 -17.43 -1.23 -6.96 -16.22 -6.97 16.22 -17.43 1.23 13.02 11.5 -5.86 15.38c-7.5,-7.69 -17.77,-12.18 -30.05,-13.48 4.63,6.92 8.28,14.06 11.16,22.21 -6.77,-5.52 -15.15,-8.83 -24.8,-9.51 5.78,7.43 10.91,15.37 14.71,23.9 0.43,0.96 1.35,1.28 2.35,0.79 13.22,-6.57 28.1,-10.26 43.87,-10.26 15.75,0 30.64,3.69 43.87,10.26 0.99,0.5 1.91,0.17 2.34,-0.79 3.8,-8.52 8.93,-16.46 14.72,-23.9zm21.07 58.15c18.92,-6.56 31.36,12.23 45.96,7.85 -14.17,-15.04 -25.68,-32.15 -24.16,-51.84 0.1,-1.16 -0.94,-1.82 -1.93,-1.12 -7.21,4.99 -12.27,13.27 -13.82,22.6 -10.03,-6.44 -21.76,-7.36 -31.45,-3.39 9.97,6.99 18.6,15.77 25.4,25.9l0 0z"/>
  </g>
 </g>
</svg>
